<?xml version="1.0" encoding="UTF-8" standalone="no"?>
<!DOCTYPE svg PUBLIC "-//W3C//DTD SVG 1.1//EN"
 "http://www.w3.org/Graphics/SVG/1.1/DTD/svg11.dtd">
<!-- Generated by graphviz version 2.38.0 (20140413.2041)
 -->
<!-- Title: G Pages: 1 -->
<svg width="675pt" height="426pt"
 viewBox="0.00 0.00 674.50 426.00" xmlns="http://www.w3.org/2000/svg" xmlns:xlink="http://www.w3.org/1999/xlink">
<g id="graph0" class="graph" transform="scale(1 1) rotate(0) translate(4 422)">
<title>G</title>
<polygon fill="white" stroke="none" points="-4,4 -4,-422 670.5,-422 670.5,4 -4,4"/>
<!-- apparat/resource -->
<g id="node1" class="node"><title>apparat/resource</title>
<path fill="#eeeeee" stroke="black" stroke-width="2" d="M395,-418C395,-418 309,-418 309,-418 303,-418 297,-412 297,-406 297,-406 297,-394 297,-394 297,-388 303,-382 309,-382 309,-382 395,-382 395,-382 401,-382 407,-388 407,-394 407,-394 407,-406 407,-406 407,-412 401,-418 395,-418"/>
<text text-anchor="middle" x="352" y="-396.3" font-family="Times New Roman,serif" font-size="14.00" fill="#314b5f">apparat/resource</text>
</g>
<!-- php -->
<g id="node2" class="node"><title>php</title>
<path fill="#eeeeee" stroke="black" d="M266,-36C266,-36 236,-36 236,-36 230,-36 224,-30 224,-24 224,-24 224,-12 224,-12 224,-6 230,-0 236,-0 236,-0 266,-0 266,-0 272,-0 278,-6 278,-12 278,-12 278,-24 278,-24 278,-30 272,-36 266,-36"/>
<text text-anchor="middle" x="251" y="-14.3" font-family="Times New Roman,serif" font-size="14.00" fill="#314b5f">php</text>
</g>
<!-- apparat/resource&#45;&gt;php -->
<g id="edge1" class="edge"><title>apparat/resource&#45;&gt;php</title>
<path fill="none" stroke="#1a2833" d="M296.613,-397.616C197.485,-393.622 0,-378.122 0,-318 0,-318 0,-318 0,-100 0,-55.6844 143.496,-32.0759 213.492,-23.1961"/>
<polygon fill="#1a2833" stroke="#1a2833" points="214.163,-26.6399 223.661,-21.9442 213.308,-19.6924 214.163,-26.6399"/>
<text text-anchor="middle" x="14.5" y="-206.5" font-family="Times New Roman,serif" font-size="10.00" fill="#767676">&gt;=5.6.0</text>
</g>
<!-- apparat/kernel -->
<g id="node3" class="node"><title>apparat/kernel</title>
<path fill="#eeeeee" stroke="black" d="M318.5,-335C318.5,-335 179.5,-335 179.5,-335 173.5,-335 167.5,-329 167.5,-323 167.5,-323 167.5,-311 167.5,-311 167.5,-305 173.5,-299 179.5,-299 179.5,-299 318.5,-299 318.5,-299 324.5,-299 330.5,-305 330.5,-311 330.5,-311 330.5,-323 330.5,-323 330.5,-329 324.5,-335 318.5,-335"/>
<text text-anchor="middle" x="249" y="-313.3" font-family="Times New Roman,serif" font-size="14.00" fill="#314b5f">apparat/kernel: dev&#45;master</text>
</g>
<!-- apparat/resource&#45;&gt;apparat/kernel -->
<g id="edge2" class="edge"><title>apparat/resource&#45;&gt;apparat/kernel</title>
<path fill="none" stroke="#1a2833" d="M330.156,-381.822C315.272,-370.116 295.373,-354.468 279.005,-341.596"/>
<polygon fill="#1a2833" stroke="#1a2833" points="280.836,-338.584 270.812,-335.153 276.509,-344.086 280.836,-338.584"/>
<text text-anchor="middle" x="329.5" y="-356" font-family="Times New Roman,serif" font-size="10.00" fill="#767676">dev&#45;master</text>
</g>
<!-- league/commonmark -->
<g id="node4" class="node"><title>league/commonmark</title>
<path fill="#eeeeee" stroke="black" d="M530.5,-335C530.5,-335 381.5,-335 381.5,-335 375.5,-335 369.5,-329 369.5,-323 369.5,-323 369.5,-311 369.5,-311 369.5,-305 375.5,-299 381.5,-299 381.5,-299 530.5,-299 530.5,-299 536.5,-299 542.5,-305 542.5,-311 542.5,-311 542.5,-323 542.5,-323 542.5,-329 536.5,-335 530.5,-335"/>
<text text-anchor="middle" x="456" y="-313.3" font-family="Times New Roman,serif" font-size="14.00" fill="#314b5f">league/commonmark: 0.13.4</text>
</g>
<!-- apparat/resource&#45;&gt;league/commonmark -->
<g id="edge3" class="edge"><title>apparat/resource&#45;&gt;league/commonmark</title>
<path fill="none" stroke="#1a2833" d="M374.056,-381.822C389.085,-370.116 409.177,-354.468 425.704,-341.596"/>
<polygon fill="#1a2833" stroke="#1a2833" points="428.237,-344.059 433.976,-335.153 423.936,-338.537 428.237,-344.059"/>
<text text-anchor="middle" x="421.5" y="-356" font-family="Times New Roman,serif" font-size="10.00" fill="#767676">^0.13</text>
</g>
<!-- symfony/yaml -->
<g id="node5" class="node"><title>symfony/yaml</title>
<path fill="#eeeeee" stroke="black" d="M654.5,-281C654.5,-281 541.5,-281 541.5,-281 535.5,-281 529.5,-275 529.5,-269 529.5,-269 529.5,-257 529.5,-257 529.5,-251 535.5,-245 541.5,-245 541.5,-245 654.5,-245 654.5,-245 660.5,-245 666.5,-251 666.5,-257 666.5,-257 666.5,-269 666.5,-269 666.5,-275 660.5,-281 654.5,-281"/>
<text text-anchor="middle" x="598" y="-259.3" font-family="Times New Roman,serif" font-size="14.00" fill="#314b5f">symfony/yaml: v3.2.1</text>
</g>
<!-- apparat/resource&#45;&gt;symfony/yaml -->
<g id="edge4" class="edge"><title>apparat/resource&#45;&gt;symfony/yaml</title>
<path fill="none" stroke="#1a2833" d="M407.262,-391.434C449.986,-383.323 508.775,-367.007 551,-335 566.269,-323.426 578.124,-305.373 586.109,-290.367"/>
<polygon fill="#1a2833" stroke="#1a2833" points="589.43,-291.552 590.793,-281.045 583.176,-288.409 589.43,-291.552"/>
<text text-anchor="middle" x="529" y="-356" font-family="Times New Roman,serif" font-size="10.00" fill="#767676">^3.1</text>
</g>
<!-- apparat/kernel&#45;&gt;php -->
<g id="edge7" class="edge"><title>apparat/kernel&#45;&gt;php</title>
<path fill="none" stroke="#1a2833" d="M201.029,-298.94C130.836,-271.054 12.6251,-211.301 53,-137 86.3753,-75.5804 166.393,-43.039 213.86,-28.5629"/>
<polygon fill="#1a2833" stroke="#1a2833" points="215.14,-31.8351 223.752,-25.6638 213.171,-25.1177 215.14,-31.8351"/>
<text text-anchor="middle" x="67.5" y="-152.5" font-family="Times New Roman,serif" font-size="10.00" fill="#767676">&gt;=5.6.0</text>
</g>
<!-- level&#45;2/dice -->
<g id="node6" class="node"><title>level&#45;2/dice</title>
<path fill="#eeeeee" stroke="black" d="M193,-173C193,-173 103,-173 103,-173 97,-173 91,-167 91,-161 91,-161 91,-149 91,-149 91,-143 97,-137 103,-137 103,-137 193,-137 193,-137 199,-137 205,-143 205,-149 205,-149 205,-161 205,-161 205,-167 199,-173 193,-173"/>
<text text-anchor="middle" x="148" y="-151.3" font-family="Times New Roman,serif" font-size="14.00" fill="#314b5f">level&#45;2/dice: 2.0.3</text>
</g>
<!-- apparat/kernel&#45;&gt;level&#45;2/dice -->
<g id="edge5" class="edge"><title>apparat/kernel&#45;&gt;level&#45;2/dice</title>
<path fill="none" stroke="#1a2833" d="M224.445,-298.911C203.457,-282.882 174.297,-256.94 159,-227 152.193,-213.678 149.35,-197.254 148.251,-183.56"/>
<polygon fill="#1a2833" stroke="#1a2833" points="151.73,-183.072 147.7,-173.273 144.74,-183.446 151.73,-183.072"/>
<text text-anchor="middle" x="208.5" y="-260.5" font-family="Times New Roman,serif" font-size="10.00" fill="#767676">2.*</text>
</g>
<!-- monolog/monolog -->
<g id="node7" class="node"><title>monolog/monolog</title>
<path fill="#eeeeee" stroke="black" d="M317.5,-227C317.5,-227 180.5,-227 180.5,-227 174.5,-227 168.5,-221 168.5,-215 168.5,-215 168.5,-203 168.5,-203 168.5,-197 174.5,-191 180.5,-191 180.5,-191 317.5,-191 317.5,-191 323.5,-191 329.5,-197 329.5,-203 329.5,-203 329.5,-215 329.5,-215 329.5,-221 323.5,-227 317.5,-227"/>
<text text-anchor="middle" x="249" y="-205.3" font-family="Times New Roman,serif" font-size="14.00" fill="#314b5f">monolog/monolog: 1.22.0</text>
</g>
<!-- apparat/kernel&#45;&gt;monolog/monolog -->
<g id="edge6" class="edge"><title>apparat/kernel&#45;&gt;monolog/monolog</title>
<path fill="none" stroke="#1a2833" d="M249,-298.969C249,-282.378 249,-256.883 249,-237.431"/>
<polygon fill="#1a2833" stroke="#1a2833" points="252.5,-237.341 249,-227.341 245.5,-237.341 252.5,-237.341"/>
<text text-anchor="middle" x="254.5" y="-260.5" font-family="Times New Roman,serif" font-size="10.00" fill="#767676">1.x</text>
</g>
<!-- vlucas/phpdotenv -->
<g id="node8" class="node"><title>vlucas/phpdotenv</title>
<path fill="#eeeeee" stroke="black" d="M420.5,-173C420.5,-173 287.5,-173 287.5,-173 281.5,-173 275.5,-167 275.5,-161 275.5,-161 275.5,-149 275.5,-149 275.5,-143 281.5,-137 287.5,-137 287.5,-137 420.5,-137 420.5,-137 426.5,-137 432.5,-143 432.5,-149 432.5,-149 432.5,-161 432.5,-161 432.5,-167 426.5,-173 420.5,-173"/>
<text text-anchor="middle" x="354" y="-151.3" font-family="Times New Roman,serif" font-size="14.00" fill="#314b5f">vlucas/phpdotenv: v2.4.0</text>
</g>
<!-- apparat/kernel&#45;&gt;vlucas/phpdotenv -->
<g id="edge8" class="edge"><title>apparat/kernel&#45;&gt;vlucas/phpdotenv</title>
<path fill="none" stroke="#1a2833" d="M272.395,-298.91C292.854,-282.695 321.763,-256.475 338,-227 345.36,-213.639 349.337,-197.09 351.484,-183.331"/>
<polygon fill="#1a2833" stroke="#1a2833" points="355.008,-183.38 352.844,-173.009 348.068,-182.466 355.008,-183.38"/>
<text text-anchor="middle" x="333.5" y="-260.5" font-family="Times New Roman,serif" font-size="10.00" fill="#767676">2.*</text>
</g>
<!-- league/commonmark&#45;&gt;php -->
<g id="edge10" class="edge"><title>league/commonmark&#45;&gt;php</title>
<path fill="none" stroke="#1a2833" d="M457.55,-298.74C460.373,-256.147 461.483,-145.004 404,-83 373.31,-49.8959 322.825,-33.3352 288.303,-25.4709"/>
<polygon fill="#1a2833" stroke="#1a2833" points="288.651,-21.9665 278.141,-23.3008 287.189,-28.8122 288.651,-21.9665"/>
<text text-anchor="middle" x="463.5" y="-152.5" font-family="Times New Roman,serif" font-size="10.00" fill="#767676">&gt;=5.4.8</text>
</g>
<!-- ext&#45;mbstring -->
<g id="node9" class="node"><title>ext&#45;mbstring</title>
<path fill="#eeeeee" stroke="black" d="M558,-227C558,-227 496,-227 496,-227 490,-227 484,-221 484,-215 484,-215 484,-203 484,-203 484,-197 490,-191 496,-191 496,-191 558,-191 558,-191 564,-191 570,-197 570,-203 570,-203 570,-215 570,-215 570,-221 564,-227 558,-227"/>
<text text-anchor="middle" x="527" y="-205.3" font-family="Times New Roman,serif" font-size="14.00" fill="#314b5f">ext&#45;mbstring</text>
</g>
<!-- league/commonmark&#45;&gt;ext&#45;mbstring -->
<g id="edge9" class="edge"><title>league/commonmark&#45;&gt;ext&#45;mbstring</title>
<path fill="none" stroke="#1a2833" d="M467.407,-298.969C478.829,-281.917 496.551,-255.459 509.703,-235.824"/>
<polygon fill="#1a2833" stroke="#1a2833" points="512.728,-237.597 515.385,-227.341 506.912,-233.701 512.728,-237.597"/>
<text text-anchor="middle" x="506" y="-260.5" font-family="Times New Roman,serif" font-size="10.00" fill="#767676">*</text>
</g>
<!-- symfony/yaml&#45;&gt;php -->
<g id="edge15" class="edge"><title>symfony/yaml&#45;&gt;php</title>
<path fill="none" stroke="#1a2833" d="M595.462,-244.943C592.79,-230.103 587.728,-208.321 579,-191 543.985,-121.514 537.189,-93.2416 470,-54 439.843,-36.387 342.457,-26.1609 288.264,-21.6969"/>
<polygon fill="#1a2833" stroke="#1a2833" points="288.281,-18.1872 278.035,-20.8804 287.724,-25.165 288.281,-18.1872"/>
<text text-anchor="middle" x="584.5" y="-152.5" font-family="Times New Roman,serif" font-size="10.00" fill="#767676">&gt;=5.5.9</text>
</g>
<!-- level&#45;2/dice&#45;&gt;php -->
<g id="edge11" class="edge"><title>level&#45;2/dice&#45;&gt;php</title>
<path fill="none" stroke="#1a2833" d="M150.046,-136.966C152.535,-121.741 157.875,-99.3737 169,-83 180.817,-65.6075 198.848,-50.7964 214.996,-39.8167"/>
<polygon fill="#1a2833" stroke="#1a2833" points="217.263,-42.5169 223.722,-34.1189 213.435,-36.6558 217.263,-42.5169"/>
<text text-anchor="middle" x="183.5" y="-98.5" font-family="Times New Roman,serif" font-size="10.00" fill="#767676">&gt;=5.6.0</text>
</g>
<!-- monolog/monolog&#45;&gt;php -->
<g id="edge12" class="edge"><title>monolog/monolog&#45;&gt;php</title>
<path fill="none" stroke="#1a2833" d="M242.63,-190.597C234.604,-166.436 222.59,-121.368 229,-83 231.112,-70.3621 235.416,-56.8773 239.663,-45.5607"/>
<polygon fill="#1a2833" stroke="#1a2833" points="242.922,-46.8369 243.323,-36.2497 236.407,-44.2761 242.922,-46.8369"/>
<text text-anchor="middle" x="243.5" y="-98.5" font-family="Times New Roman,serif" font-size="10.00" fill="#767676">&gt;=5.3.0</text>
</g>
<!-- psr/log -->
<g id="node10" class="node"><title>psr/log</title>
<path fill="#eeeeee" stroke="black" d="M345,-119C345,-119 279,-119 279,-119 273,-119 267,-113 267,-107 267,-107 267,-95 267,-95 267,-89 273,-83 279,-83 279,-83 345,-83 345,-83 351,-83 357,-89 357,-95 357,-95 357,-107 357,-107 357,-113 351,-119 345,-119"/>
<text text-anchor="middle" x="312" y="-97.3" font-family="Times New Roman,serif" font-size="14.00" fill="#314b5f">psr/log: 1.0.2</text>
</g>
<!-- monolog/monolog&#45;&gt;psr/log -->
<g id="edge13" class="edge"><title>monolog/monolog&#45;&gt;psr/log</title>
<path fill="none" stroke="#1a2833" d="M244.415,-190.959C241.329,-175.731 239.373,-153.361 249,-137 251.629,-132.531 255.058,-128.593 258.959,-125.129"/>
<polygon fill="#1a2833" stroke="#1a2833" points="261.12,-127.883 266.955,-119.039 256.878,-122.314 261.12,-127.883"/>
<text text-anchor="middle" x="257.5" y="-152.5" font-family="Times New Roman,serif" font-size="10.00" fill="#767676">~1.0</text>
</g>
<!-- vlucas/phpdotenv&#45;&gt;php -->
<g id="edge16" class="edge"><title>vlucas/phpdotenv&#45;&gt;php</title>
<path fill="none" stroke="#1a2833" d="M362.791,-136.88C369.214,-121.801 375.32,-99.7024 366,-83 349.787,-53.9456 314.81,-37.2371 287.661,-28.23"/>
<polygon fill="#1a2833" stroke="#1a2833" points="288.65,-24.8724 278.062,-25.2515 286.576,-31.5579 288.65,-24.8724"/>
<text text-anchor="middle" x="385.5" y="-98.5" font-family="Times New Roman,serif" font-size="10.00" fill="#767676">&gt;=5.3.9</text>
</g>
<!-- psr/log&#45;&gt;php -->
<g id="edge14" class="edge"><title>psr/log&#45;&gt;php</title>
<path fill="none" stroke="#1a2833" d="M299.063,-82.822C290.653,-71.6534 279.538,-56.8953 270.116,-44.3841"/>
<polygon fill="#1a2833" stroke="#1a2833" points="272.73,-42.0359 263.918,-36.1533 267.138,-46.247 272.73,-42.0359"/>
<text text-anchor="middle" x="300.5" y="-57" font-family="Times New Roman,serif" font-size="10.00" fill="#767676">&gt;=5.3.0</text>
</g>
</g>
</svg>
